<?xml version="1.0" encoding="UTF-8" standalone="no"?>
<!DOCTYPE svg PUBLIC "-//W3C//DTD SVG 1.1//EN"
 "http://www.w3.org/Graphics/SVG/1.1/DTD/svg11.dtd">
<!-- Generated by graphviz version 2.38.0 (20140413.2041)
 -->
<!-- Title: models_diagram Pages: 1 -->
<svg width="656pt" height="551pt"
 viewBox="0.00 0.00 656.34 551.00" xmlns="http://www.w3.org/2000/svg" xmlns:xlink="http://www.w3.org/1999/xlink">
<g id="graph0" class="graph" transform="scale(1 1) rotate(0) translate(4 547)">
<title>models_diagram</title>
<polygon fill="none" stroke="none" points="-4,4 -4,-547 652.343,-547 652.343,4 -4,4"/>
<!-- _diagram_info -->
<g id="node1" class="node"><title>_diagram_info</title>
<text text-anchor="start" x="8" y="-514.1" font-family="Times,serif" font-size="13.00">Models diagram</text>
<text text-anchor="start" x="8" y="-500.1" font-family="Times,serif" font-size="13.00">Date: Feb 27 2017 &#45; 12:29</text>
<text text-anchor="start" x="8" y="-486.1" font-family="Times,serif" font-size="13.00">Migration version: 20170227152645</text>
<text text-anchor="start" x="8" y="-472.1" font-family="Times,serif" font-size="13.00">Generated by RailRoady 1.5.2</text>
<text text-anchor="start" x="8" y="-458.1" font-family="Times,serif" font-size="13.00">http://railroady.prestonlee.com</text>
</g>
<!-- Pokemon -->
<g id="node2" class="node"><title>Pokemon</title>
<path fill="none" stroke="black" d="M244,-436.5C244,-436.5 464,-436.5 464,-436.5 470,-436.5 476,-442.5 476,-448.5 476,-448.5 476,-530.5 476,-530.5 476,-536.5 470,-542.5 464,-542.5 464,-542.5 244,-542.5 244,-542.5 238,-542.5 232,-536.5 232,-530.5 232,-530.5 232,-448.5 232,-448.5 232,-442.5 238,-436.5 244,-436.5"/>
<text text-anchor="middle" x="354" y="-527.3" font-family="Times,serif" font-size="14.00">Pokemon</text>
<polyline fill="none" stroke="black" points="232,-519.5 476,-519.5 "/>
<text text-anchor="start" x="240" y="-504.3" font-family="Times,serif" font-size="14.00">id :integer</text>
<text text-anchor="start" x="240" y="-489.3" font-family="Times,serif" font-size="14.00">name :character varying</text>
<text text-anchor="start" x="240" y="-474.3" font-family="Times,serif" font-size="14.00">description :character varying</text>
<text text-anchor="start" x="240" y="-459.3" font-family="Times,serif" font-size="14.00">created_at :timestamp without time zone</text>
<text text-anchor="start" x="240" y="-444.3" font-family="Times,serif" font-size="14.00">updated_at :timestamp without time zone</text>
</g>
<!-- User -->
<g id="node4" class="node"><title>User</title>
<path fill="none" stroke="black" d="M116.5,-158.5C116.5,-158.5 405.5,-158.5 405.5,-158.5 411.5,-158.5 417.5,-164.5 417.5,-170.5 417.5,-170.5 417.5,-387.5 417.5,-387.5 417.5,-393.5 411.5,-399.5 405.5,-399.5 405.5,-399.5 116.5,-399.5 116.5,-399.5 110.5,-399.5 104.5,-393.5 104.5,-387.5 104.5,-387.5 104.5,-170.5 104.5,-170.5 104.5,-164.5 110.5,-158.5 116.5,-158.5"/>
<text text-anchor="middle" x="261" y="-384.3" font-family="Times,serif" font-size="14.00">User</text>
<polyline fill="none" stroke="black" points="104.5,-376.5 417.5,-376.5 "/>
<text text-anchor="start" x="112.5" y="-361.3" font-family="Times,serif" font-size="14.00">id :integer</text>
<text text-anchor="start" x="112.5" y="-346.3" font-family="Times,serif" font-size="14.00">email :character varying</text>
<text text-anchor="start" x="112.5" y="-331.3" font-family="Times,serif" font-size="14.00">encrypted_password :character varying</text>
<text text-anchor="start" x="112.5" y="-316.3" font-family="Times,serif" font-size="14.00">reset_password_token :character varying</text>
<text text-anchor="start" x="112.5" y="-301.3" font-family="Times,serif" font-size="14.00">reset_password_sent_at :timestamp without time zone</text>
<text text-anchor="start" x="112.5" y="-286.3" font-family="Times,serif" font-size="14.00">remember_created_at :timestamp without time zone</text>
<text text-anchor="start" x="112.5" y="-271.3" font-family="Times,serif" font-size="14.00">sign_in_count :integer</text>
<text text-anchor="start" x="112.5" y="-256.3" font-family="Times,serif" font-size="14.00">current_sign_in_at :timestamp without time zone</text>
<text text-anchor="start" x="112.5" y="-241.3" font-family="Times,serif" font-size="14.00">last_sign_in_at :timestamp without time zone</text>
<text text-anchor="start" x="112.5" y="-226.3" font-family="Times,serif" font-size="14.00">current_sign_in_ip :inet</text>
<text text-anchor="start" x="112.5" y="-211.3" font-family="Times,serif" font-size="14.00">last_sign_in_ip :inet</text>
<text text-anchor="start" x="112.5" y="-196.3" font-family="Times,serif" font-size="14.00">created_at :timestamp without time zone</text>
<text text-anchor="start" x="112.5" y="-181.3" font-family="Times,serif" font-size="14.00">updated_at :timestamp without time zone</text>
<text text-anchor="start" x="112.5" y="-166.3" font-family="Times,serif" font-size="14.00">role :integer</text>
</g>
<!-- Pokemon&#45;&gt;User -->
<g id="edge2" class="edge"><title>Pokemon&#45;&gt;User</title>
<path fill="none" stroke="#ba1913" d="M326.644,-427.169C324.031,-421.312 321.321,-415.235 318.555,-409.034"/>
<polygon fill="#ba1913" stroke="#ba1913" points="326.698,-427.292 326.662,-438.258 328.735,-431.858 330.772,-436.424 330.772,-436.424 330.772,-436.424 328.735,-431.858 334.882,-434.591 326.698,-427.292 326.698,-427.292"/>
<polygon fill="#ba1913" stroke="#ba1913" points="318.542,-409.004 318.578,-398.039 316.505,-404.438 314.468,-399.872 314.468,-399.872 314.468,-399.872 316.505,-404.438 310.358,-401.705 318.542,-409.004 318.542,-409.004"/>
</g>
<!-- Caught -->
<g id="node5" class="node"><title>Caught</title>
<path fill="none" stroke="black" d="M243,-0.5C243,-0.5 463,-0.5 463,-0.5 469,-0.5 475,-6.5 475,-12.5 475,-12.5 475,-109.5 475,-109.5 475,-115.5 469,-121.5 463,-121.5 463,-121.5 243,-121.5 243,-121.5 237,-121.5 231,-115.5 231,-109.5 231,-109.5 231,-12.5 231,-12.5 231,-6.5 237,-0.5 243,-0.5"/>
<text text-anchor="middle" x="353" y="-106.3" font-family="Times,serif" font-size="14.00">Caught</text>
<polyline fill="none" stroke="black" points="231,-98.5 475,-98.5 "/>
<text text-anchor="start" x="239" y="-83.3" font-family="Times,serif" font-size="14.00">id :integer</text>
<text text-anchor="start" x="239" y="-68.3" font-family="Times,serif" font-size="14.00">level :integer</text>
<text text-anchor="start" x="239" y="-53.3" font-family="Times,serif" font-size="14.00">pokemon_id :integer</text>
<text text-anchor="start" x="239" y="-38.3" font-family="Times,serif" font-size="14.00">user_id :integer</text>
<text text-anchor="start" x="239" y="-23.3" font-family="Times,serif" font-size="14.00">created_at :timestamp without time zone</text>
<text text-anchor="start" x="239" y="-8.3" font-family="Times,serif" font-size="14.00">updated_at :timestamp without time zone</text>
</g>
<!-- Pokemon&#45;&gt;Caught -->
<g id="edge1" class="edge"><title>Pokemon&#45;&gt;Caught</title>
<path fill="none" stroke="#4dc22e" d="M411.587,-429.423C417.871,-420.172 423.316,-410.257 427,-400 463.361,-298.777 461.685,-259.809 427,-158 423.768,-148.513 419.178,-139.234 413.846,-130.413"/>
<ellipse fill="none" stroke="#4dc22e" cx="409.197" cy="-432.78" rx="4.00002" ry="4.00002"/>
<polygon fill="#4dc22e" stroke="#4dc22e" points="413.69,-130.171 412.077,-119.324 410.99,-125.963 408.29,-121.754 408.29,-121.754 408.29,-121.754 410.99,-125.963 404.503,-124.185 413.69,-130.171 413.69,-130.171"/>
</g>
<!-- ApplicationRecord -->
<g id="node3" class="node"><title>ApplicationRecord</title>
<ellipse fill="none" stroke="black" cx="571" cy="-489.5" rx="77.1866" ry="18"/>
<text text-anchor="middle" x="571" y="-485.8" font-family="Times,serif" font-size="14.00">ApplicationRecord</text>
</g>
<!-- User&#45;&gt;Caught -->
<g id="edge3" class="edge"><title>User&#45;&gt;Caught</title>
<path fill="none" stroke="#ee61ce" d="M315.123,-150.929C318.011,-144.148 320.855,-137.471 323.607,-131.009"/>
<ellipse fill="none" stroke="#ee61ce" cx="313.545" cy="-154.633" rx="4.00002" ry="4.00002"/>
<polygon fill="#ee61ce" stroke="#ee61ce" points="323.65,-130.908 331.709,-123.471 325.61,-126.308 327.569,-121.708 327.569,-121.708 327.569,-121.708 325.61,-126.308 323.429,-119.944 323.65,-130.908 323.65,-130.908"/>
</g>
</g>
</svg>
